<svg xmlns="http://www.w3.org/2000/svg" xmlns:xlink="http://www.w3.org/1999/xlink" width="500" zoomAndPan="magnify" viewBox="0 0 375 374.999991" height="500" preserveAspectRatio="xMidYMid meet" version="1.0"><defs><g/></defs><rect x="-37.5" width="450" fill="#ffffff" y="-37.499999" height="449.999989" fill-opacity="1"/><rect x="-37.5" width="450" fill="#ffffff" y="-37.499999" height="449.999989" fill-opacity="1"/><g fill="#355e3b" fill-opacity="1"><g transform="translate(46.01127, 314.81242)"><g><path d="M 229.90625 -34.0625 C 236.382812 -17.300781 245.707031 -8.648438 257.875 -8.109375 L 257.875 0 C 247.0625 -0.8125 232.601562 -1.21875 214.5 -1.21875 C 191.25 -1.21875 173.945312 -0.8125 162.59375 0 L 162.59375 -8.109375 C 172.863281 -8.648438 180.226562 -9.929688 184.6875 -11.953125 C 189.144531 -13.984375 191.375 -17.703125 191.375 -23.109375 C 191.375 -27.703125 189.753906 -34.054688 186.515625 -42.171875 L 161.78125 -108.671875 L 63.65625 -108.671875 L 47.03125 -65.6875 C 41.625 -51.09375 38.921875 -40.007812 38.921875 -32.4375 C 38.921875 -24.0625 41.828125 -17.976562 47.640625 -14.1875 C 53.453125 -10.40625 62.304688 -8.378906 74.203125 -8.109375 L 74.203125 0 C 58.796875 -0.8125 43.253906 -1.21875 27.578125 -1.21875 C 15.410156 -1.21875 5.269531 -0.8125 -2.84375 0 L -2.84375 -8.109375 C 10.675781 -11.347656 21.351562 -23.109375 29.1875 -43.390625 L 124.484375 -289.09375 L 130.96875 -289.09375 Z M 158.53125 -116.78125 L 113.125 -238.015625 L 66.90625 -116.78125 Z M 158.53125 -116.78125 "/></g></g></g><g fill="#ffffff" fill-opacity="1"><g transform="translate(166.676385, 338.93388)"><g><path d="M 89.796875 -252.1875 C 100.078125 -252.1875 108.195312 -251.078125 114.15625 -248.859375 C 120.125 -246.640625 126.265625 -243.425781 132.578125 -239.21875 C 137.722656 -235.9375 141.703125 -234.296875 144.515625 -234.296875 C 146.617188 -234.296875 148.253906 -235.523438 149.421875 -237.984375 C 150.585938 -240.441406 151.519531 -244.359375 152.21875 -249.734375 L 160.296875 -249.734375 C 159.117188 -236.171875 158.53125 -212.320312 158.53125 -178.1875 L 150.46875 -178.1875 C 149.070312 -197.125 143.632812 -213.082031 134.15625 -226.0625 C 124.6875 -239.039062 110.953125 -245.53125 92.953125 -245.53125 C 80.328125 -245.53125 70.035156 -241.726562 62.078125 -234.125 C 54.128906 -226.519531 50.15625 -216.757812 50.15625 -204.84375 C 50.15625 -195.957031 52.203125 -188.238281 56.296875 -181.6875 C 60.390625 -175.144531 65.59375 -169.535156 71.90625 -164.859375 C 78.21875 -160.179688 87.21875 -154.21875 98.90625 -146.96875 L 109.078125 -140.65625 C 123.816406 -131.53125 135.453125 -123.519531 143.984375 -116.625 C 152.515625 -109.726562 159.351562 -101.835938 164.5 -92.953125 C 169.644531 -84.066406 172.21875 -73.660156 172.21875 -61.734375 C 172.21875 -40.453125 165.203125 -24.023438 151.171875 -12.453125 C 137.140625 -0.878906 119.367188 4.90625 97.859375 4.90625 C 86.628906 4.90625 77.445312 3.734375 70.3125 1.390625 C 63.1875 -0.941406 56.351562 -4.09375 49.8125 -8.0625 C 44.664062 -11.34375 40.6875 -12.984375 37.875 -12.984375 C 35.769531 -12.984375 34.132812 -11.753906 32.96875 -9.296875 C 31.800781 -6.835938 30.867188 -2.921875 30.171875 2.453125 L 22.09375 2.453125 C 23.03125 -10.410156 23.5 -38.46875 23.5 -81.71875 L 31.5625 -81.71875 C 33.195312 -58.101562 39.039062 -38.929688 49.09375 -24.203125 C 59.15625 -9.472656 74.59375 -2.109375 95.40625 -2.109375 C 108.03125 -2.109375 118.785156 -6.023438 127.671875 -13.859375 C 136.554688 -21.691406 141 -33.320312 141 -48.75 C 141 -61.84375 136.613281 -72.945312 127.84375 -82.0625 C 119.070312 -91.1875 105.21875 -101.476562 86.28125 -112.9375 C 72.488281 -121.351562 61.320312 -128.832031 52.78125 -135.375 C 44.25 -141.925781 37.289062 -149.820312 31.90625 -159.0625 C 26.53125 -168.300781 23.84375 -179.117188 23.84375 -191.515625 C 23.84375 -211.148438 30.15625 -226.171875 42.78125 -236.578125 C 55.414062 -246.984375 71.085938 -252.1875 89.796875 -252.1875 Z M 89.796875 -252.1875 "/></g></g></g><g fill="#355e3b" fill-opacity="1"><g transform="translate(155.742017, 338.169276)"><g><path d="M 89.796875 -252.1875 C 100.078125 -252.1875 108.195312 -251.078125 114.15625 -248.859375 C 120.125 -246.640625 126.265625 -243.425781 132.578125 -239.21875 C 137.722656 -235.9375 141.703125 -234.296875 144.515625 -234.296875 C 146.617188 -234.296875 148.253906 -235.523438 149.421875 -237.984375 C 150.585938 -240.441406 151.519531 -244.359375 152.21875 -249.734375 L 160.296875 -249.734375 C 159.117188 -236.171875 158.53125 -212.320312 158.53125 -178.1875 L 150.46875 -178.1875 C 149.070312 -197.125 143.632812 -213.082031 134.15625 -226.0625 C 124.6875 -239.039062 110.953125 -245.53125 92.953125 -245.53125 C 80.328125 -245.53125 70.035156 -241.726562 62.078125 -234.125 C 54.128906 -226.519531 50.15625 -216.757812 50.15625 -204.84375 C 50.15625 -195.957031 52.203125 -188.238281 56.296875 -181.6875 C 60.390625 -175.144531 65.59375 -169.535156 71.90625 -164.859375 C 78.21875 -160.179688 87.21875 -154.21875 98.90625 -146.96875 L 109.078125 -140.65625 C 123.816406 -131.53125 135.453125 -123.519531 143.984375 -116.625 C 152.515625 -109.726562 159.351562 -101.835938 164.5 -92.953125 C 169.644531 -84.066406 172.21875 -73.660156 172.21875 -61.734375 C 172.21875 -40.453125 165.203125 -24.023438 151.171875 -12.453125 C 137.140625 -0.878906 119.367188 4.90625 97.859375 4.90625 C 86.628906 4.90625 77.445312 3.734375 70.3125 1.390625 C 63.1875 -0.941406 56.351562 -4.09375 49.8125 -8.0625 C 44.664062 -11.34375 40.6875 -12.984375 37.875 -12.984375 C 35.769531 -12.984375 34.132812 -11.753906 32.96875 -9.296875 C 31.800781 -6.835938 30.867188 -2.921875 30.171875 2.453125 L 22.09375 2.453125 C 23.03125 -10.410156 23.5 -38.46875 23.5 -81.71875 L 31.5625 -81.71875 C 33.195312 -58.101562 39.039062 -38.929688 49.09375 -24.203125 C 59.15625 -9.472656 74.59375 -2.109375 95.40625 -2.109375 C 108.03125 -2.109375 118.785156 -6.023438 127.671875 -13.859375 C 136.554688 -21.691406 141 -33.320312 141 -48.75 C 141 -61.84375 136.613281 -72.945312 127.84375 -82.0625 C 119.070312 -91.1875 105.21875 -101.476562 86.28125 -112.9375 C 72.488281 -121.351562 61.320312 -128.832031 52.78125 -135.375 C 44.25 -141.925781 37.289062 -149.820312 31.90625 -159.0625 C 26.53125 -168.300781 23.84375 -179.117188 23.84375 -191.515625 C 23.84375 -211.148438 30.15625 -226.171875 42.78125 -236.578125 C 55.414062 -246.984375 71.085938 -252.1875 89.796875 -252.1875 Z M 89.796875 -252.1875 "/></g></g></g></svg>