<svg xmlns="http://www.w3.org/2000/svg" xmlns:xlink="http://www.w3.org/1999/xlink" width="500" zoomAndPan="magnify" viewBox="0 0 375 374.999991" height="500" preserveAspectRatio="xMidYMid meet" version="1.0"><defs><g/></defs><g fill="#355e3b" fill-opacity="1"><g transform="translate(87.688454, 216.677417)"><g><path d="M 135.0625 -20.015625 C 138.875 -10.160156 144.351562 -5.078125 151.5 -4.765625 L 151.5 0 C 145.144531 -0.476562 136.648438 -0.71875 126.015625 -0.71875 C 112.359375 -0.71875 102.191406 -0.476562 95.515625 0 L 95.515625 -4.765625 C 101.554688 -5.078125 105.882812 -5.828125 108.5 -7.015625 C 111.125 -8.210938 112.4375 -10.398438 112.4375 -13.578125 C 112.4375 -16.273438 111.484375 -20.003906 109.578125 -24.765625 L 95.046875 -63.84375 L 37.390625 -63.84375 L 27.625 -38.59375 C 24.457031 -30.007812 22.875 -23.5 22.875 -19.0625 C 22.875 -14.132812 24.578125 -10.554688 27.984375 -8.328125 C 31.398438 -6.109375 36.601562 -4.921875 43.59375 -4.765625 L 43.59375 0 C 34.539062 -0.476562 25.410156 -0.71875 16.203125 -0.71875 C 9.054688 -0.71875 3.097656 -0.476562 -1.671875 0 L -1.671875 -4.765625 C 6.273438 -6.671875 12.550781 -13.578125 17.15625 -25.484375 L 73.125 -169.84375 L 76.9375 -169.84375 Z M 93.140625 -68.609375 L 66.453125 -139.828125 L 39.296875 -68.609375 Z M 93.140625 -68.609375 "/></g></g></g><g fill="#ffffff" fill-opacity="1"><g transform="translate(158.577768, 230.848496)"><g><path d="M 52.75 -148.15625 C 58.789062 -148.15625 63.5625 -147.503906 67.0625 -146.203125 C 70.570312 -144.898438 74.179688 -143.007812 77.890625 -140.53125 C 80.910156 -138.613281 83.242188 -137.65625 84.890625 -137.65625 C 86.128906 -137.65625 87.09375 -138.375 87.78125 -139.8125 C 88.46875 -141.257812 89.019531 -143.5625 89.4375 -146.71875 L 94.171875 -146.71875 C 93.484375 -138.75 93.140625 -124.738281 93.140625 -104.6875 L 88.40625 -104.6875 C 87.582031 -115.8125 84.382812 -125.1875 78.8125 -132.8125 C 73.25 -140.4375 65.179688 -144.25 54.609375 -144.25 C 47.191406 -144.25 41.144531 -142.015625 36.46875 -137.546875 C 31.800781 -133.078125 29.46875 -127.34375 29.46875 -120.34375 C 29.46875 -115.125 30.664062 -110.585938 33.0625 -106.734375 C 35.46875 -102.890625 38.523438 -99.59375 42.234375 -96.84375 C 45.953125 -94.101562 51.242188 -90.601562 58.109375 -86.34375 L 64.078125 -82.625 C 72.734375 -77.269531 79.566406 -72.566406 84.578125 -68.515625 C 89.597656 -64.460938 93.617188 -59.828125 96.640625 -54.609375 C 99.660156 -49.390625 101.171875 -43.273438 101.171875 -36.265625 C 101.171875 -23.765625 97.050781 -14.113281 88.8125 -7.3125 C 80.570312 -0.507812 70.128906 2.890625 57.484375 2.890625 C 50.890625 2.890625 45.5 2.203125 41.3125 0.828125 C 37.125 -0.546875 33.109375 -2.398438 29.265625 -4.734375 C 26.242188 -6.660156 23.90625 -7.625 22.25 -7.625 C 21.019531 -7.625 20.0625 -6.898438 19.375 -5.453125 C 18.6875 -4.015625 18.132812 -1.71875 17.71875 1.4375 L 12.984375 1.4375 C 13.535156 -6.113281 13.8125 -22.597656 13.8125 -48.015625 L 18.546875 -48.015625 C 19.503906 -34.140625 22.9375 -22.875 28.84375 -14.21875 C 34.75 -5.5625 43.816406 -1.234375 56.046875 -1.234375 C 63.460938 -1.234375 69.78125 -3.535156 75 -8.140625 C 80.226562 -12.742188 82.84375 -19.578125 82.84375 -28.640625 C 82.84375 -36.335938 80.265625 -42.863281 75.109375 -48.21875 C 69.953125 -53.570312 61.8125 -59.617188 50.6875 -66.359375 C 42.582031 -71.296875 36.019531 -75.6875 31 -79.53125 C 25.988281 -83.382812 21.90625 -88.023438 18.75 -93.453125 C 15.59375 -98.878906 14.015625 -105.234375 14.015625 -112.515625 C 14.015625 -124.046875 17.722656 -132.867188 25.140625 -138.984375 C 32.554688 -145.097656 41.757812 -148.15625 52.75 -148.15625 Z M 52.75 -148.15625 "/></g></g></g><g fill="#355e3b" fill-opacity="1"><g transform="translate(152.153959, 230.399299)"><g><path d="M 52.75 -148.15625 C 58.789062 -148.15625 63.5625 -147.503906 67.0625 -146.203125 C 70.570312 -144.898438 74.179688 -143.007812 77.890625 -140.53125 C 80.910156 -138.613281 83.242188 -137.65625 84.890625 -137.65625 C 86.128906 -137.65625 87.09375 -138.375 87.78125 -139.8125 C 88.46875 -141.257812 89.019531 -143.5625 89.4375 -146.71875 L 94.171875 -146.71875 C 93.484375 -138.75 93.140625 -124.738281 93.140625 -104.6875 L 88.40625 -104.6875 C 87.582031 -115.8125 84.382812 -125.1875 78.8125 -132.8125 C 73.25 -140.4375 65.179688 -144.25 54.609375 -144.25 C 47.191406 -144.25 41.144531 -142.015625 36.46875 -137.546875 C 31.800781 -133.078125 29.46875 -127.34375 29.46875 -120.34375 C 29.46875 -115.125 30.664062 -110.585938 33.0625 -106.734375 C 35.46875 -102.890625 38.523438 -99.59375 42.234375 -96.84375 C 45.953125 -94.101562 51.242188 -90.601562 58.109375 -86.34375 L 64.078125 -82.625 C 72.734375 -77.269531 79.566406 -72.566406 84.578125 -68.515625 C 89.597656 -64.460938 93.617188 -59.828125 96.640625 -54.609375 C 99.660156 -49.390625 101.171875 -43.273438 101.171875 -36.265625 C 101.171875 -23.765625 97.050781 -14.113281 88.8125 -7.3125 C 80.570312 -0.507812 70.128906 2.890625 57.484375 2.890625 C 50.890625 2.890625 45.5 2.203125 41.3125 0.828125 C 37.125 -0.546875 33.109375 -2.398438 29.265625 -4.734375 C 26.242188 -6.660156 23.90625 -7.625 22.25 -7.625 C 21.019531 -7.625 20.0625 -6.898438 19.375 -5.453125 C 18.6875 -4.015625 18.132812 -1.71875 17.71875 1.4375 L 12.984375 1.4375 C 13.535156 -6.113281 13.8125 -22.597656 13.8125 -48.015625 L 18.546875 -48.015625 C 19.503906 -34.140625 22.9375 -22.875 28.84375 -14.21875 C 34.75 -5.5625 43.816406 -1.234375 56.046875 -1.234375 C 63.460938 -1.234375 69.78125 -3.535156 75 -8.140625 C 80.226562 -12.742188 82.84375 -19.578125 82.84375 -28.640625 C 82.84375 -36.335938 80.265625 -42.863281 75.109375 -48.21875 C 69.953125 -53.570312 61.8125 -59.617188 50.6875 -66.359375 C 42.582031 -71.296875 36.019531 -75.6875 31 -79.53125 C 25.988281 -83.382812 21.90625 -88.023438 18.75 -93.453125 C 15.59375 -98.878906 14.015625 -105.234375 14.015625 -112.515625 C 14.015625 -124.046875 17.722656 -132.867188 25.140625 -138.984375 C 32.554688 -145.097656 41.757812 -148.15625 52.75 -148.15625 Z M 52.75 -148.15625 "/></g></g></g><g fill="#355e3b" fill-opacity="1"><g transform="translate(85.051507, 325.602401)"><g><path d="M 3.515625 0.0625 C 2.921875 0.0625 2.347656 -0.03125 1.796875 -0.21875 C 1.253906 -0.40625 0.832031 -0.65625 0.53125 -0.96875 L 0.875 -1.625 C 1.164062 -1.332031 1.550781 -1.097656 2.03125 -0.921875 C 2.507812 -0.742188 3.003906 -0.65625 3.515625 -0.65625 C 4.234375 -0.65625 4.769531 -0.785156 5.125 -1.046875 C 5.488281 -1.304688 5.671875 -1.648438 5.671875 -2.078125 C 5.671875 -2.390625 5.570312 -2.640625 5.375 -2.828125 C 5.175781 -3.023438 4.9375 -3.175781 4.65625 -3.28125 C 4.375 -3.382812 3.984375 -3.5 3.484375 -3.625 C 2.878906 -3.769531 2.394531 -3.910156 2.03125 -4.046875 C 1.675781 -4.191406 1.367188 -4.410156 1.109375 -4.703125 C 0.859375 -4.992188 0.734375 -5.390625 0.734375 -5.890625 C 0.734375 -6.296875 0.835938 -6.660156 1.046875 -6.984375 C 1.265625 -7.316406 1.59375 -7.582031 2.03125 -7.78125 C 2.476562 -7.976562 3.03125 -8.078125 3.6875 -8.078125 C 4.144531 -8.078125 4.59375 -8.015625 5.03125 -7.890625 C 5.46875 -7.765625 5.847656 -7.59375 6.171875 -7.375 L 5.890625 -6.703125 C 5.554688 -6.921875 5.195312 -7.082031 4.8125 -7.1875 C 4.425781 -7.300781 4.050781 -7.359375 3.6875 -7.359375 C 2.988281 -7.359375 2.457031 -7.222656 2.09375 -6.953125 C 1.738281 -6.679688 1.5625 -6.332031 1.5625 -5.90625 C 1.5625 -5.582031 1.660156 -5.320312 1.859375 -5.125 C 2.054688 -4.9375 2.300781 -4.789062 2.59375 -4.6875 C 2.882812 -4.582031 3.28125 -4.472656 3.78125 -4.359375 C 4.363281 -4.210938 4.835938 -4.066406 5.203125 -3.921875 C 5.566406 -3.773438 5.875 -3.5625 6.125 -3.28125 C 6.375 -3 6.5 -2.613281 6.5 -2.125 C 6.5 -1.71875 6.390625 -1.347656 6.171875 -1.015625 C 5.960938 -0.679688 5.628906 -0.414062 5.171875 -0.21875 C 4.722656 -0.03125 4.171875 0.0625 3.515625 0.0625 Z M 3.515625 0.0625 "/></g></g></g><g fill="#355e3b" fill-opacity="1"><g transform="translate(97.170127, 325.602401)"><g><path d="M 4.3125 -8.015625 C 5.332031 -8.015625 6.128906 -7.769531 6.703125 -7.28125 C 7.285156 -6.789062 7.578125 -6.117188 7.578125 -5.265625 C 7.578125 -4.410156 7.285156 -3.738281 6.703125 -3.25 C 6.128906 -2.769531 5.332031 -2.53125 4.3125 -2.53125 L 2.15625 -2.53125 L 2.15625 0 L 1.3125 0 L 1.3125 -8.015625 Z M 4.28125 -3.28125 C 5.070312 -3.28125 5.675781 -3.453125 6.09375 -3.796875 C 6.519531 -4.140625 6.734375 -4.628906 6.734375 -5.265625 C 6.734375 -5.910156 6.519531 -6.40625 6.09375 -6.75 C 5.675781 -7.101562 5.070312 -7.28125 4.28125 -7.28125 L 2.15625 -7.28125 L 2.15625 -3.28125 Z M 4.28125 -3.28125 "/></g></g></g><g fill="#355e3b" fill-opacity="1"><g transform="translate(110.468014, 325.602401)"><g><path d="M 6.96875 -0.734375 L 6.96875 0 L 1.3125 0 L 1.3125 -8.015625 L 6.796875 -8.015625 L 6.796875 -7.28125 L 2.15625 -7.28125 L 2.15625 -4.4375 L 6.296875 -4.4375 L 6.296875 -3.703125 L 2.15625 -3.703125 L 2.15625 -0.734375 Z M 6.96875 -0.734375 "/></g></g></g><g fill="#355e3b" fill-opacity="1"><g transform="translate(123.20489, 325.602401)"><g><path d="M 6.96875 -0.734375 L 6.96875 0 L 1.3125 0 L 1.3125 -8.015625 L 6.796875 -8.015625 L 6.796875 -7.28125 L 2.15625 -7.28125 L 2.15625 -4.4375 L 6.296875 -4.4375 L 6.296875 -3.703125 L 2.15625 -3.703125 L 2.15625 -0.734375 Z M 6.96875 -0.734375 "/></g></g></g><g fill="#355e3b" fill-opacity="1"><g transform="translate(135.941766, 325.602401)"><g><path d="M 4.78125 0.0625 C 3.988281 0.0625 3.273438 -0.109375 2.640625 -0.453125 C 2.003906 -0.804688 1.503906 -1.296875 1.140625 -1.921875 C 0.773438 -2.546875 0.59375 -3.242188 0.59375 -4.015625 C 0.59375 -4.785156 0.773438 -5.476562 1.140625 -6.09375 C 1.503906 -6.71875 2.003906 -7.203125 2.640625 -7.546875 C 3.285156 -7.898438 4.003906 -8.078125 4.796875 -8.078125 C 5.390625 -8.078125 5.9375 -7.976562 6.4375 -7.78125 C 6.945312 -7.582031 7.378906 -7.296875 7.734375 -6.921875 L 7.1875 -6.375 C 6.5625 -7.007812 5.773438 -7.328125 4.828125 -7.328125 C 4.191406 -7.328125 3.613281 -7.179688 3.09375 -6.890625 C 2.570312 -6.597656 2.164062 -6.203125 1.875 -5.703125 C 1.582031 -5.203125 1.4375 -4.640625 1.4375 -4.015625 C 1.4375 -3.378906 1.582031 -2.8125 1.875 -2.3125 C 2.164062 -1.8125 2.570312 -1.414062 3.09375 -1.125 C 3.613281 -0.832031 4.191406 -0.6875 4.828125 -0.6875 C 5.785156 -0.6875 6.570312 -1.007812 7.1875 -1.65625 L 7.734375 -1.109375 C 7.378906 -0.722656 6.945312 -0.429688 6.4375 -0.234375 C 5.9375 -0.0351562 5.382812 0.0625 4.78125 0.0625 Z M 4.78125 0.0625 "/></g></g></g><g fill="#355e3b" fill-opacity="1"><g transform="translate(149.251106, 325.602401)"><g><path d="M 8 -8.015625 L 8 0 L 7.171875 0 L 7.171875 -3.703125 L 2.15625 -3.703125 L 2.15625 0 L 1.3125 0 L 1.3125 -8.015625 L 2.15625 -8.015625 L 2.15625 -4.4375 L 7.171875 -4.4375 L 7.171875 -8.015625 Z M 8 -8.015625 "/></g></g></g><g fill="#355e3b" fill-opacity="1"><g transform="translate(163.636673, 325.602401)"><g/></g></g><g fill="#355e3b" fill-opacity="1"><g transform="translate(171.713695, 325.602401)"><g><path d="M 4.3125 -8.015625 C 5.332031 -8.015625 6.128906 -7.769531 6.703125 -7.28125 C 7.285156 -6.789062 7.578125 -6.117188 7.578125 -5.265625 C 7.578125 -4.410156 7.285156 -3.738281 6.703125 -3.25 C 6.128906 -2.769531 5.332031 -2.53125 4.3125 -2.53125 L 2.15625 -2.53125 L 2.15625 0 L 1.3125 0 L 1.3125 -8.015625 Z M 4.28125 -3.28125 C 5.070312 -3.28125 5.675781 -3.453125 6.09375 -3.796875 C 6.519531 -4.140625 6.734375 -4.628906 6.734375 -5.265625 C 6.734375 -5.910156 6.519531 -6.40625 6.09375 -6.75 C 5.675781 -7.101562 5.070312 -7.28125 4.28125 -7.28125 L 2.15625 -7.28125 L 2.15625 -3.28125 Z M 4.28125 -3.28125 "/></g></g></g><g fill="#355e3b" fill-opacity="1"><g transform="translate(185.01158, 325.602401)"><g><path d="M 6.328125 -2.140625 L 1.859375 -2.140625 L 0.90625 0 L 0.015625 0 L 3.6875 -8.015625 L 4.53125 -8.015625 L 8.1875 0 L 7.296875 0 Z M 6.03125 -2.828125 L 4.09375 -7.140625 L 2.171875 -2.828125 Z M 6.03125 -2.828125 "/></g></g></g><g fill="#355e3b" fill-opacity="1"><g transform="translate(198.298021, 325.602401)"><g><path d="M 2.859375 -7.28125 L 0.046875 -7.28125 L 0.046875 -8.015625 L 6.53125 -8.015625 L 6.53125 -7.28125 L 3.703125 -7.28125 L 3.703125 0 L 2.859375 0 Z M 2.859375 -7.28125 "/></g></g></g><g fill="#355e3b" fill-opacity="1"><g transform="translate(209.947213, 325.602401)"><g><path d="M 8 -8.015625 L 8 0 L 7.171875 0 L 7.171875 -3.703125 L 2.15625 -3.703125 L 2.15625 0 L 1.3125 0 L 1.3125 -8.015625 L 2.15625 -8.015625 L 2.15625 -4.4375 L 7.171875 -4.4375 L 7.171875 -8.015625 Z M 8 -8.015625 "/></g></g></g><g fill="#355e3b" fill-opacity="1"><g transform="translate(224.332779, 325.602401)"><g><path d="M 4.8125 0.0625 C 4.019531 0.0625 3.300781 -0.113281 2.65625 -0.46875 C 2.007812 -0.820312 1.503906 -1.304688 1.140625 -1.921875 C 0.773438 -2.546875 0.59375 -3.242188 0.59375 -4.015625 C 0.59375 -4.785156 0.773438 -5.476562 1.140625 -6.09375 C 1.503906 -6.707031 2.007812 -7.191406 2.65625 -7.546875 C 3.300781 -7.898438 4.019531 -8.078125 4.8125 -8.078125 C 5.601562 -8.078125 6.316406 -7.898438 6.953125 -7.546875 C 7.597656 -7.203125 8.101562 -6.71875 8.46875 -6.09375 C 8.832031 -5.476562 9.015625 -4.785156 9.015625 -4.015625 C 9.015625 -3.242188 8.832031 -2.546875 8.46875 -1.921875 C 8.101562 -1.296875 7.597656 -0.804688 6.953125 -0.453125 C 6.316406 -0.109375 5.601562 0.0625 4.8125 0.0625 Z M 4.8125 -0.6875 C 5.445312 -0.6875 6.019531 -0.828125 6.53125 -1.109375 C 7.039062 -1.398438 7.441406 -1.796875 7.734375 -2.296875 C 8.023438 -2.804688 8.171875 -3.378906 8.171875 -4.015625 C 8.171875 -4.640625 8.023438 -5.203125 7.734375 -5.703125 C 7.441406 -6.210938 7.039062 -6.609375 6.53125 -6.890625 C 6.019531 -7.179688 5.445312 -7.328125 4.8125 -7.328125 C 4.175781 -7.328125 3.597656 -7.179688 3.078125 -6.890625 C 2.566406 -6.609375 2.164062 -6.210938 1.875 -5.703125 C 1.582031 -5.203125 1.4375 -4.640625 1.4375 -4.015625 C 1.4375 -3.378906 1.582031 -2.804688 1.875 -2.296875 C 2.164062 -1.796875 2.566406 -1.398438 3.078125 -1.109375 C 3.597656 -0.828125 4.175781 -0.6875 4.8125 -0.6875 Z M 4.8125 -0.6875 "/></g></g></g><g fill="#355e3b" fill-opacity="1"><g transform="translate(239.016028, 325.602401)"><g><path d="M 1.3125 -8.015625 L 2.15625 -8.015625 L 2.15625 -0.734375 L 6.640625 -0.734375 L 6.640625 0 L 1.3125 0 Z M 1.3125 -8.015625 "/></g></g></g><g fill="#355e3b" fill-opacity="1"><g transform="translate(250.836962, 325.602401)"><g><path d="M 4.8125 0.0625 C 4.019531 0.0625 3.300781 -0.113281 2.65625 -0.46875 C 2.007812 -0.820312 1.503906 -1.304688 1.140625 -1.921875 C 0.773438 -2.546875 0.59375 -3.242188 0.59375 -4.015625 C 0.59375 -4.785156 0.773438 -5.476562 1.140625 -6.09375 C 1.503906 -6.707031 2.007812 -7.191406 2.65625 -7.546875 C 3.300781 -7.898438 4.019531 -8.078125 4.8125 -8.078125 C 5.601562 -8.078125 6.316406 -7.898438 6.953125 -7.546875 C 7.597656 -7.203125 8.101562 -6.71875 8.46875 -6.09375 C 8.832031 -5.476562 9.015625 -4.785156 9.015625 -4.015625 C 9.015625 -3.242188 8.832031 -2.546875 8.46875 -1.921875 C 8.101562 -1.296875 7.597656 -0.804688 6.953125 -0.453125 C 6.316406 -0.109375 5.601562 0.0625 4.8125 0.0625 Z M 4.8125 -0.6875 C 5.445312 -0.6875 6.019531 -0.828125 6.53125 -1.109375 C 7.039062 -1.398438 7.441406 -1.796875 7.734375 -2.296875 C 8.023438 -2.804688 8.171875 -3.378906 8.171875 -4.015625 C 8.171875 -4.640625 8.023438 -5.203125 7.734375 -5.703125 C 7.441406 -6.210938 7.039062 -6.609375 6.53125 -6.890625 C 6.019531 -7.179688 5.445312 -7.328125 4.8125 -7.328125 C 4.175781 -7.328125 3.597656 -7.179688 3.078125 -6.890625 C 2.566406 -6.609375 2.164062 -6.210938 1.875 -5.703125 C 1.582031 -5.203125 1.4375 -4.640625 1.4375 -4.015625 C 1.4375 -3.378906 1.582031 -2.804688 1.875 -2.296875 C 2.164062 -1.796875 2.566406 -1.398438 3.078125 -1.109375 C 3.597656 -0.828125 4.175781 -0.6875 4.8125 -0.6875 Z M 4.8125 -0.6875 "/></g></g></g><g fill="#355e3b" fill-opacity="1"><g transform="translate(265.520211, 325.602401)"><g><path d="M 6.953125 -4.015625 L 7.765625 -4.015625 L 7.765625 -0.953125 C 7.390625 -0.617188 6.945312 -0.363281 6.4375 -0.1875 C 5.925781 -0.0195312 5.390625 0.0625 4.828125 0.0625 C 4.023438 0.0625 3.300781 -0.109375 2.65625 -0.453125 C 2.007812 -0.804688 1.503906 -1.296875 1.140625 -1.921875 C 0.773438 -2.546875 0.59375 -3.242188 0.59375 -4.015625 C 0.59375 -4.785156 0.773438 -5.476562 1.140625 -6.09375 C 1.503906 -6.71875 2.007812 -7.203125 2.65625 -7.546875 C 3.300781 -7.898438 4.023438 -8.078125 4.828125 -8.078125 C 5.441406 -8.078125 6.003906 -7.976562 6.515625 -7.78125 C 7.023438 -7.59375 7.457031 -7.304688 7.8125 -6.921875 L 7.28125 -6.390625 C 6.644531 -7.015625 5.84375 -7.328125 4.875 -7.328125 C 4.21875 -7.328125 3.628906 -7.179688 3.109375 -6.890625 C 2.585938 -6.609375 2.175781 -6.210938 1.875 -5.703125 C 1.582031 -5.203125 1.4375 -4.640625 1.4375 -4.015625 C 1.4375 -3.378906 1.582031 -2.8125 1.875 -2.3125 C 2.175781 -1.8125 2.582031 -1.414062 3.09375 -1.125 C 3.613281 -0.832031 4.203125 -0.6875 4.859375 -0.6875 C 5.679688 -0.6875 6.378906 -0.894531 6.953125 -1.3125 Z M 6.953125 -4.015625 "/></g></g></g><g fill="#355e3b" fill-opacity="1"><g transform="translate(279.447819, 325.602401)"><g><path d="M 1.3125 -8.015625 L 2.15625 -8.015625 L 2.15625 0 L 1.3125 0 Z M 1.3125 -8.015625 "/></g></g></g><g fill="#355e3b" fill-opacity="1"><g transform="translate(287.982822, 325.602401)"><g><path d="M 3.515625 0.0625 C 2.921875 0.0625 2.347656 -0.03125 1.796875 -0.21875 C 1.253906 -0.40625 0.832031 -0.65625 0.53125 -0.96875 L 0.875 -1.625 C 1.164062 -1.332031 1.550781 -1.097656 2.03125 -0.921875 C 2.507812 -0.742188 3.003906 -0.65625 3.515625 -0.65625 C 4.234375 -0.65625 4.769531 -0.785156 5.125 -1.046875 C 5.488281 -1.304688 5.671875 -1.648438 5.671875 -2.078125 C 5.671875 -2.390625 5.570312 -2.640625 5.375 -2.828125 C 5.175781 -3.023438 4.9375 -3.175781 4.65625 -3.28125 C 4.375 -3.382812 3.984375 -3.5 3.484375 -3.625 C 2.878906 -3.769531 2.394531 -3.910156 2.03125 -4.046875 C 1.675781 -4.191406 1.367188 -4.410156 1.109375 -4.703125 C 0.859375 -4.992188 0.734375 -5.390625 0.734375 -5.890625 C 0.734375 -6.296875 0.835938 -6.660156 1.046875 -6.984375 C 1.265625 -7.316406 1.59375 -7.582031 2.03125 -7.78125 C 2.476562 -7.976562 3.03125 -8.078125 3.6875 -8.078125 C 4.144531 -8.078125 4.59375 -8.015625 5.03125 -7.890625 C 5.46875 -7.765625 5.847656 -7.59375 6.171875 -7.375 L 5.890625 -6.703125 C 5.554688 -6.921875 5.195312 -7.082031 4.8125 -7.1875 C 4.425781 -7.300781 4.050781 -7.359375 3.6875 -7.359375 C 2.988281 -7.359375 2.457031 -7.222656 2.09375 -6.953125 C 1.738281 -6.679688 1.5625 -6.332031 1.5625 -5.90625 C 1.5625 -5.582031 1.660156 -5.320312 1.859375 -5.125 C 2.054688 -4.9375 2.300781 -4.789062 2.59375 -4.6875 C 2.882812 -4.582031 3.28125 -4.472656 3.78125 -4.359375 C 4.363281 -4.210938 4.835938 -4.066406 5.203125 -3.921875 C 5.566406 -3.773438 5.875 -3.5625 6.125 -3.28125 C 6.375 -3 6.5 -2.613281 6.5 -2.125 C 6.5 -1.71875 6.390625 -1.347656 6.171875 -1.015625 C 5.960938 -0.679688 5.628906 -0.414062 5.171875 -0.21875 C 4.722656 -0.03125 4.171875 0.0625 3.515625 0.0625 Z M 3.515625 0.0625 "/></g></g></g><g fill="#355e3b" fill-opacity="1"><g transform="translate(300.101451, 325.602401)"><g><path d="M 2.859375 -7.28125 L 0.046875 -7.28125 L 0.046875 -8.015625 L 6.53125 -8.015625 L 6.53125 -7.28125 L 3.703125 -7.28125 L 3.703125 0 L 2.859375 0 Z M 2.859375 -7.28125 "/></g></g></g><g fill="#355e3b" fill-opacity="1"><g transform="translate(120.767537, 273.951251)"><g><path d="M 15.046875 -2.234375 C 15.472656 -1.128906 16.085938 -0.5625 16.890625 -0.53125 L 16.890625 0 C 16.179688 -0.0507812 15.234375 -0.078125 14.046875 -0.078125 C 12.523438 -0.078125 11.390625 -0.0507812 10.640625 0 L 10.640625 -0.53125 C 11.316406 -0.5625 11.800781 -0.644531 12.09375 -0.78125 C 12.382812 -0.914062 12.53125 -1.160156 12.53125 -1.515625 C 12.53125 -1.816406 12.425781 -2.234375 12.21875 -2.765625 L 10.59375 -7.109375 L 4.171875 -7.109375 L 3.078125 -4.296875 C 2.722656 -3.335938 2.546875 -2.613281 2.546875 -2.125 C 2.546875 -1.570312 2.734375 -1.171875 3.109375 -0.921875 C 3.492188 -0.679688 4.078125 -0.550781 4.859375 -0.53125 L 4.859375 0 C 3.847656 -0.0507812 2.832031 -0.078125 1.8125 -0.078125 C 1.007812 -0.078125 0.34375 -0.0507812 -0.1875 0 L -0.1875 -0.53125 C 0.695312 -0.738281 1.394531 -1.507812 1.90625 -2.84375 L 8.15625 -18.921875 L 8.578125 -18.921875 Z M 10.375 -7.640625 L 7.40625 -15.578125 L 4.375 -7.640625 Z M 10.375 -7.640625 "/></g></g></g><g fill="#355e3b" fill-opacity="1"><g transform="translate(137.489597, 273.951251)"><g><path d="M 9.84375 -19.171875 C 10.90625 -19.171875 11.804688 -19.019531 12.546875 -18.71875 C 13.296875 -18.414062 14.023438 -17.988281 14.734375 -17.4375 C 14.929688 -17.28125 15.097656 -17.203125 15.234375 -17.203125 C 15.585938 -17.203125 15.816406 -17.734375 15.921875 -18.796875 L 16.53125 -18.796875 C 16.46875 -17.640625 16.4375 -15.601562 16.4375 -12.6875 L 15.828125 -12.6875 C 15.628906 -13.84375 15.445312 -14.671875 15.28125 -15.171875 C 15.125 -15.671875 14.863281 -16.15625 14.5 -16.625 C 13.96875 -17.3125 13.289062 -17.828125 12.46875 -18.171875 C 11.644531 -18.515625 10.753906 -18.6875 9.796875 -18.6875 C 8.640625 -18.6875 7.632812 -18.304688 6.78125 -17.546875 C 5.925781 -16.785156 5.257812 -15.703125 4.78125 -14.296875 C 4.300781 -12.890625 4.0625 -11.238281 4.0625 -9.34375 C 4.0625 -7.414062 4.316406 -5.757812 4.828125 -4.375 C 5.335938 -3 6.046875 -1.953125 6.953125 -1.234375 C 7.867188 -0.515625 8.90625 -0.15625 10.0625 -0.15625 C 10.945312 -0.15625 11.804688 -0.320312 12.640625 -0.65625 C 13.472656 -1 14.125 -1.503906 14.59375 -2.171875 C 14.945312 -2.671875 15.203125 -3.203125 15.359375 -3.765625 C 15.523438 -4.335938 15.679688 -5.207031 15.828125 -6.375 L 16.4375 -6.375 C 16.4375 -3.332031 16.46875 -1.207031 16.53125 0 L 15.921875 0 C 15.867188 -0.5625 15.796875 -0.960938 15.703125 -1.203125 C 15.609375 -1.441406 15.472656 -1.5625 15.296875 -1.5625 C 15.148438 -1.5625 14.960938 -1.492188 14.734375 -1.359375 C 13.929688 -0.785156 13.164062 -0.351562 12.4375 -0.0625 C 11.71875 0.226562 10.847656 0.375 9.828125 0.375 C 8.140625 0.375 6.660156 -0.00390625 5.390625 -0.765625 C 4.128906 -1.523438 3.148438 -2.625 2.453125 -4.0625 C 1.753906 -5.507812 1.40625 -7.234375 1.40625 -9.234375 C 1.40625 -11.179688 1.765625 -12.90625 2.484375 -14.40625 C 3.203125 -15.914062 4.203125 -17.085938 5.484375 -17.921875 C 6.765625 -18.753906 8.21875 -19.171875 9.84375 -19.171875 Z M 9.84375 -19.171875 "/></g></g></g><g fill="#355e3b" fill-opacity="1"><g transform="translate(155.751151, 273.951251)"><g><path d="M 9.84375 -19.171875 C 10.90625 -19.171875 11.804688 -19.019531 12.546875 -18.71875 C 13.296875 -18.414062 14.023438 -17.988281 14.734375 -17.4375 C 14.929688 -17.28125 15.097656 -17.203125 15.234375 -17.203125 C 15.585938 -17.203125 15.816406 -17.734375 15.921875 -18.796875 L 16.53125 -18.796875 C 16.46875 -17.640625 16.4375 -15.601562 16.4375 -12.6875 L 15.828125 -12.6875 C 15.628906 -13.84375 15.445312 -14.671875 15.28125 -15.171875 C 15.125 -15.671875 14.863281 -16.15625 14.5 -16.625 C 13.96875 -17.3125 13.289062 -17.828125 12.46875 -18.171875 C 11.644531 -18.515625 10.753906 -18.6875 9.796875 -18.6875 C 8.640625 -18.6875 7.632812 -18.304688 6.78125 -17.546875 C 5.925781 -16.785156 5.257812 -15.703125 4.78125 -14.296875 C 4.300781 -12.890625 4.0625 -11.238281 4.0625 -9.34375 C 4.0625 -7.414062 4.316406 -5.757812 4.828125 -4.375 C 5.335938 -3 6.046875 -1.953125 6.953125 -1.234375 C 7.867188 -0.515625 8.90625 -0.15625 10.0625 -0.15625 C 10.945312 -0.15625 11.804688 -0.320312 12.640625 -0.65625 C 13.472656 -1 14.125 -1.503906 14.59375 -2.171875 C 14.945312 -2.671875 15.203125 -3.203125 15.359375 -3.765625 C 15.523438 -4.335938 15.679688 -5.207031 15.828125 -6.375 L 16.4375 -6.375 C 16.4375 -3.332031 16.46875 -1.207031 16.53125 0 L 15.921875 0 C 15.867188 -0.5625 15.796875 -0.960938 15.703125 -1.203125 C 15.609375 -1.441406 15.472656 -1.5625 15.296875 -1.5625 C 15.148438 -1.5625 14.960938 -1.492188 14.734375 -1.359375 C 13.929688 -0.785156 13.164062 -0.351562 12.4375 -0.0625 C 11.71875 0.226562 10.847656 0.375 9.828125 0.375 C 8.140625 0.375 6.660156 -0.00390625 5.390625 -0.765625 C 4.128906 -1.523438 3.148438 -2.625 2.453125 -4.0625 C 1.753906 -5.507812 1.40625 -7.234375 1.40625 -9.234375 C 1.40625 -11.179688 1.765625 -12.90625 2.484375 -14.40625 C 3.203125 -15.914062 4.203125 -17.085938 5.484375 -17.921875 C 6.765625 -18.753906 8.21875 -19.171875 9.84375 -19.171875 Z M 9.84375 -19.171875 "/></g></g></g><g fill="#355e3b" fill-opacity="1"><g transform="translate(174.012705, 273.951251)"><g><path d="M 14.703125 -3.390625 C 14.703125 -2.390625 14.765625 -1.257812 14.890625 0 C 13.691406 -0.0507812 11.664062 -0.078125 8.8125 -0.078125 C 5.414062 -0.078125 2.847656 -0.0507812 1.109375 0 L 1.109375 -0.53125 C 1.753906 -0.5625 2.222656 -0.628906 2.515625 -0.734375 C 2.804688 -0.847656 3.003906 -1.054688 3.109375 -1.359375 C 3.210938 -1.660156 3.265625 -2.144531 3.265625 -2.8125 L 3.265625 -15.984375 C 3.265625 -16.648438 3.210938 -17.132812 3.109375 -17.4375 C 3.003906 -17.738281 2.804688 -17.941406 2.515625 -18.046875 C 2.222656 -18.160156 1.753906 -18.234375 1.109375 -18.265625 L 1.109375 -18.796875 C 2.847656 -18.742188 5.414062 -18.71875 8.8125 -18.71875 C 11.414062 -18.71875 13.265625 -18.742188 14.359375 -18.796875 C 14.234375 -17.628906 14.171875 -16.582031 14.171875 -15.65625 C 14.171875 -14.96875 14.195312 -14.421875 14.25 -14.015625 L 13.640625 -14.015625 C 13.515625 -15.171875 13.351562 -16.023438 13.15625 -16.578125 C 12.96875 -17.140625 12.644531 -17.546875 12.1875 -17.796875 C 11.726562 -18.054688 11.03125 -18.1875 10.09375 -18.1875 L 7.890625 -18.1875 C 7.242188 -18.1875 6.773438 -18.132812 6.484375 -18.03125 C 6.191406 -17.9375 5.992188 -17.738281 5.890625 -17.4375 C 5.785156 -17.132812 5.734375 -16.648438 5.734375 -15.984375 L 5.734375 -9.71875 L 7.484375 -9.71875 C 8.109375 -9.71875 8.585938 -9.863281 8.921875 -10.15625 C 9.253906 -10.445312 9.476562 -10.789062 9.59375 -11.1875 C 9.707031 -11.582031 9.800781 -12.082031 9.875 -12.6875 L 9.953125 -13.21875 L 10.5625 -13.21875 C 10.507812 -12.476562 10.484375 -11.644531 10.484375 -10.71875 L 10.484375 -9.453125 C 10.484375 -8.546875 10.535156 -7.289062 10.640625 -5.6875 L 10.03125 -5.6875 C 10.019531 -5.800781 9.96875 -6.222656 9.875 -6.953125 C 9.789062 -7.691406 9.546875 -8.25 9.140625 -8.625 C 8.742188 -9 8.191406 -9.1875 7.484375 -9.1875 L 5.734375 -9.1875 L 5.734375 -2.8125 C 5.734375 -2.144531 5.785156 -1.660156 5.890625 -1.359375 C 5.992188 -1.054688 6.191406 -0.851562 6.484375 -0.75 C 6.773438 -0.65625 7.242188 -0.609375 7.890625 -0.609375 L 9.828125 -0.609375 C 10.921875 -0.609375 11.753906 -0.753906 12.328125 -1.046875 C 12.898438 -1.335938 13.316406 -1.804688 13.578125 -2.453125 C 13.847656 -3.097656 14.046875 -4.050781 14.171875 -5.3125 L 14.78125 -5.3125 C 14.726562 -4.832031 14.703125 -4.191406 14.703125 -3.390625 Z M 14.703125 -3.390625 "/></g></g></g><g fill="#355e3b" fill-opacity="1"><g transform="translate(190.177369, 273.951251)"><g><path d="M 17.78125 -18.265625 C 17.164062 -18.234375 16.707031 -18.140625 16.40625 -17.984375 C 16.101562 -17.835938 15.898438 -17.585938 15.796875 -17.234375 C 15.691406 -16.890625 15.640625 -16.382812 15.640625 -15.71875 L 15.640625 0.125 L 15.03125 0.125 L 3.875 -17.09375 L 3.875 -3.078125 C 3.875 -2.390625 3.929688 -1.875 4.046875 -1.53125 C 4.160156 -1.195312 4.382812 -0.953125 4.71875 -0.796875 C 5.0625 -0.648438 5.585938 -0.5625 6.296875 -0.53125 L 6.296875 0 C 5.660156 -0.0507812 4.753906 -0.078125 3.578125 -0.078125 C 2.515625 -0.078125 1.691406 -0.0507812 1.109375 0 L 1.109375 -0.53125 C 1.734375 -0.5625 2.195312 -0.648438 2.5 -0.796875 C 2.800781 -0.953125 3.003906 -1.203125 3.109375 -1.546875 C 3.210938 -1.898438 3.265625 -2.410156 3.265625 -3.078125 L 3.265625 -15.984375 C 3.265625 -16.648438 3.210938 -17.132812 3.109375 -17.4375 C 3.003906 -17.738281 2.804688 -17.941406 2.515625 -18.046875 C 2.222656 -18.160156 1.753906 -18.234375 1.109375 -18.265625 L 1.109375 -18.796875 C 1.691406 -18.742188 2.515625 -18.71875 3.578125 -18.71875 C 4.378906 -18.71875 5.070312 -18.742188 5.65625 -18.796875 L 15.03125 -4.359375 L 15.03125 -15.71875 C 15.03125 -16.40625 14.972656 -16.914062 14.859375 -17.25 C 14.742188 -17.59375 14.515625 -17.835938 14.171875 -17.984375 C 13.835938 -18.140625 13.316406 -18.234375 12.609375 -18.265625 L 12.609375 -18.796875 C 13.242188 -18.742188 14.144531 -18.71875 15.3125 -18.71875 C 16.375 -18.71875 17.195312 -18.742188 17.78125 -18.796875 Z M 17.78125 -18.265625 "/></g></g></g><g fill="#355e3b" fill-opacity="1"><g transform="translate(208.916702, 273.951251)"><g><path d="M 15.71875 -18.796875 C 15.59375 -17.535156 15.53125 -16.398438 15.53125 -15.390625 C 15.53125 -14.503906 15.554688 -13.78125 15.609375 -13.21875 L 15 -13.21875 C 14.851562 -14.582031 14.675781 -15.59375 14.46875 -16.25 C 14.257812 -16.914062 13.890625 -17.40625 13.359375 -17.71875 C 12.828125 -18.03125 12.007812 -18.1875 10.90625 -18.1875 L 9.484375 -18.1875 L 9.484375 -3.078125 C 9.484375 -2.335938 9.550781 -1.796875 9.6875 -1.453125 C 9.832031 -1.117188 10.082031 -0.890625 10.4375 -0.765625 C 10.789062 -0.640625 11.363281 -0.5625 12.15625 -0.53125 L 12.15625 0 C 11.238281 -0.0507812 9.9375 -0.078125 8.25 -0.078125 C 6.476562 -0.078125 5.171875 -0.0507812 4.328125 0 L 4.328125 -0.53125 C 5.117188 -0.5625 5.691406 -0.640625 6.046875 -0.765625 C 6.398438 -0.890625 6.648438 -1.117188 6.796875 -1.453125 C 6.941406 -1.796875 7.015625 -2.335938 7.015625 -3.078125 L 7.015625 -18.1875 L 5.578125 -18.1875 C 4.472656 -18.1875 3.65625 -18.03125 3.125 -17.71875 C 2.601562 -17.40625 2.234375 -16.914062 2.015625 -16.25 C 1.804688 -15.59375 1.628906 -14.582031 1.484375 -13.21875 L 0.875 -13.21875 C 0.925781 -13.78125 0.953125 -14.503906 0.953125 -15.390625 C 0.953125 -16.398438 0.890625 -17.535156 0.765625 -18.796875 C 2.234375 -18.742188 4.726562 -18.71875 8.25 -18.71875 C 11.757812 -18.71875 14.25 -18.742188 15.71875 -18.796875 Z M 15.71875 -18.796875 "/></g></g></g><g fill="#355e3b" fill-opacity="1"><g transform="translate(225.399879, 273.951251)"><g/></g></g><g fill="#355e3b" fill-opacity="1"><g transform="translate(232.00907, 273.951251)"><g><path d="M 17.8125 -19.171875 C 18.925781 -19.171875 19.847656 -18.847656 20.578125 -18.203125 C 21.316406 -17.554688 21.6875 -16.679688 21.6875 -15.578125 C 21.6875 -14.734375 21.457031 -13.992188 21 -13.359375 C 20.539062 -12.734375 19.929688 -12.234375 19.171875 -11.859375 C 18.492188 -11.546875 17.179688 -11.085938 15.234375 -10.484375 C 16.222656 -10.054688 16.953125 -9.445312 17.421875 -8.65625 C 17.890625 -7.875 18.125 -6.976562 18.125 -5.96875 C 18.125 -4.875 17.796875 -3.835938 17.140625 -2.859375 C 16.492188 -1.890625 15.554688 -1.109375 14.328125 -0.515625 C 13.109375 0.078125 11.675781 0.375 10.03125 0.375 C 8.488281 0.375 7.054688 0.101562 5.734375 -0.4375 C 4.421875 -0.976562 3.375 -1.75 2.59375 -2.75 C 1.820312 -3.75 1.4375 -4.910156 1.4375 -6.234375 C 1.4375 -7.398438 1.722656 -8.382812 2.296875 -9.1875 C 2.867188 -10 3.523438 -10.613281 4.265625 -11.03125 C 5.015625 -11.445312 5.707031 -11.734375 6.34375 -11.890625 C 5.476562 -12.265625 4.8125 -12.757812 4.34375 -13.375 C 3.882812 -14 3.65625 -14.644531 3.65625 -15.3125 C 3.65625 -15.894531 3.828125 -16.4375 4.171875 -16.9375 C 4.523438 -17.445312 5.039062 -17.859375 5.71875 -18.171875 C 6.40625 -18.484375 7.21875 -18.640625 8.15625 -18.640625 C 9.332031 -18.640625 10.25 -18.375 10.90625 -17.84375 C 11.226562 -17.570312 11.472656 -17.269531 11.640625 -16.9375 C 11.804688 -16.613281 11.890625 -16.304688 11.890625 -16.015625 C 11.890625 -15.585938 11.738281 -15.242188 11.4375 -14.984375 C 11.132812 -14.722656 10.789062 -14.59375 10.40625 -14.59375 C 10.03125 -14.59375 9.707031 -14.710938 9.4375 -14.953125 C 9.164062 -15.191406 9.03125 -15.515625 9.03125 -15.921875 C 9.03125 -16.316406 9.160156 -16.648438 9.421875 -16.921875 C 9.691406 -17.191406 10.03125 -17.347656 10.4375 -17.390625 C 10.34375 -17.617188 10.113281 -17.816406 9.75 -17.984375 C 9.394531 -18.148438 8.953125 -18.234375 8.421875 -18.234375 C 7.492188 -18.234375 6.75 -17.953125 6.1875 -17.390625 C 5.625 -16.835938 5.34375 -16.066406 5.34375 -15.078125 C 5.34375 -13.890625 5.789062 -12.878906 6.6875 -12.046875 C 7.3125 -12.160156 7.859375 -12.21875 8.328125 -12.21875 C 8.648438 -12.21875 8.90625 -12.160156 9.09375 -12.046875 C 9.289062 -11.941406 9.390625 -11.789062 9.390625 -11.59375 C 9.390625 -11.4375 9.320312 -11.3125 9.1875 -11.21875 C 9.0625 -11.132812 8.882812 -11.09375 8.65625 -11.09375 C 8.375 -11.09375 8.082031 -11.144531 7.78125 -11.25 C 7.476562 -11.363281 7.125 -11.507812 6.71875 -11.6875 C 4.414062 -10.988281 3.265625 -9.535156 3.265625 -7.328125 C 3.265625 -6.140625 3.570312 -5.113281 4.1875 -4.25 C 4.8125 -3.382812 5.660156 -2.722656 6.734375 -2.265625 C 7.816406 -1.816406 9.03125 -1.59375 10.375 -1.59375 C 11.632812 -1.59375 12.800781 -1.789062 13.875 -2.1875 C 14.945312 -2.582031 15.796875 -3.144531 16.421875 -3.875 C 17.046875 -4.613281 17.359375 -5.472656 17.359375 -6.453125 C 17.359375 -7.160156 17.171875 -7.875 16.796875 -8.59375 C 16.429688 -9.320312 15.726562 -9.890625 14.6875 -10.296875 C 13.300781 -9.867188 12.28125 -9.535156 11.625 -9.296875 C 10.882812 -9.003906 10.3125 -8.675781 9.90625 -8.3125 C 9.5 -7.957031 9.296875 -7.515625 9.296875 -6.984375 C 9.296875 -6.347656 9.554688 -5.832031 10.078125 -5.4375 C 10.597656 -5.050781 11.148438 -4.859375 11.734375 -4.859375 C 12.035156 -4.859375 12.363281 -4.910156 12.71875 -5.015625 C 13.070312 -5.117188 13.273438 -5.257812 13.328125 -5.4375 C 12.992188 -5.507812 12.703125 -5.648438 12.453125 -5.859375 C 12.203125 -6.078125 12.078125 -6.390625 12.078125 -6.796875 C 12.078125 -7.222656 12.210938 -7.554688 12.484375 -7.796875 C 12.765625 -8.046875 13.113281 -8.171875 13.53125 -8.171875 C 13.957031 -8.171875 14.300781 -8.035156 14.5625 -7.765625 C 14.820312 -7.503906 14.953125 -7.164062 14.953125 -6.75 C 14.953125 -6.039062 14.625 -5.476562 13.96875 -5.0625 C 13.3125 -4.65625 12.582031 -4.453125 11.78125 -4.453125 C 10.914062 -4.453125 10.148438 -4.710938 9.484375 -5.234375 C 8.828125 -5.765625 8.5 -6.539062 8.5 -7.5625 C 8.5 -8.46875 8.800781 -9.234375 9.40625 -9.859375 C 10.019531 -10.484375 10.9375 -11.007812 12.15625 -11.4375 L 14.046875 -12 C 15.109375 -12.300781 15.992188 -12.566406 16.703125 -12.796875 C 17.410156 -13.023438 18.054688 -13.269531 18.640625 -13.53125 C 19.484375 -13.925781 20.070312 -14.328125 20.40625 -14.734375 C 20.75 -15.140625 20.921875 -15.59375 20.921875 -16.09375 C 20.921875 -16.832031 20.613281 -17.460938 20 -17.984375 C 19.394531 -18.503906 18.675781 -18.765625 17.84375 -18.765625 C 17.394531 -18.765625 17.128906 -18.6875 17.046875 -18.53125 C 17.273438 -18.425781 17.453125 -18.253906 17.578125 -18.015625 C 17.710938 -17.773438 17.78125 -17.539062 17.78125 -17.3125 C 17.78125 -16.9375 17.632812 -16.625 17.34375 -16.375 C 17.050781 -16.132812 16.703125 -16.015625 16.296875 -16.015625 C 15.929688 -16.015625 15.601562 -16.128906 15.3125 -16.359375 C 15.03125 -16.585938 14.890625 -16.910156 14.890625 -17.328125 C 14.890625 -17.972656 15.1875 -18.441406 15.78125 -18.734375 C 16.375 -19.023438 17.050781 -19.171875 17.8125 -19.171875 Z M 17.8125 -19.171875 "/></g></g></g><g fill="#355e3b" fill-opacity="1"><g transform="translate(137.220661, 299.451249)"><g><path d="M 6.796875 -19.09375 C 7.578125 -19.09375 8.191406 -19.003906 8.640625 -18.828125 C 9.085938 -18.660156 9.550781 -18.421875 10.03125 -18.109375 C 10.425781 -17.859375 10.726562 -17.734375 10.9375 -17.734375 C 11.09375 -17.734375 11.210938 -17.828125 11.296875 -18.015625 C 11.390625 -18.203125 11.460938 -18.5 11.515625 -18.90625 L 12.125 -18.90625 C 12.039062 -17.875 12 -16.066406 12 -13.484375 L 11.390625 -13.484375 C 11.285156 -14.921875 10.875 -16.128906 10.15625 -17.109375 C 9.4375 -18.085938 8.394531 -18.578125 7.03125 -18.578125 C 6.070312 -18.578125 5.289062 -18.289062 4.6875 -17.71875 C 4.09375 -17.144531 3.796875 -16.40625 3.796875 -15.5 C 3.796875 -14.832031 3.945312 -14.25 4.25 -13.75 C 4.5625 -13.257812 4.957031 -12.835938 5.4375 -12.484375 C 5.914062 -12.128906 6.597656 -11.675781 7.484375 -11.125 L 8.25 -10.640625 C 9.363281 -9.953125 10.242188 -9.347656 10.890625 -8.828125 C 11.535156 -8.304688 12.050781 -7.707031 12.4375 -7.03125 C 12.832031 -6.363281 13.03125 -5.578125 13.03125 -4.671875 C 13.03125 -3.054688 12.5 -1.8125 11.4375 -0.9375 C 10.375 -0.0625 9.03125 0.375 7.40625 0.375 C 6.550781 0.375 5.851562 0.285156 5.3125 0.109375 C 4.78125 -0.0664062 4.265625 -0.304688 3.765625 -0.609375 C 3.378906 -0.859375 3.078125 -0.984375 2.859375 -0.984375 C 2.703125 -0.984375 2.578125 -0.890625 2.484375 -0.703125 C 2.398438 -0.515625 2.332031 -0.21875 2.28125 0.1875 L 1.671875 0.1875 C 1.742188 -0.789062 1.78125 -2.914062 1.78125 -6.1875 L 2.390625 -6.1875 C 2.515625 -4.394531 2.957031 -2.941406 3.71875 -1.828125 C 4.476562 -0.710938 5.644531 -0.15625 7.21875 -0.15625 C 8.175781 -0.15625 8.988281 -0.453125 9.65625 -1.046875 C 10.332031 -1.640625 10.671875 -2.519531 10.671875 -3.6875 C 10.671875 -4.675781 10.335938 -5.515625 9.671875 -6.203125 C 9.015625 -6.898438 7.96875 -7.679688 6.53125 -8.546875 C 5.488281 -9.179688 4.644531 -9.742188 4 -10.234375 C 3.351562 -10.734375 2.828125 -11.332031 2.421875 -12.03125 C 2.015625 -12.738281 1.8125 -13.5625 1.8125 -14.5 C 1.8125 -15.976562 2.285156 -17.113281 3.234375 -17.90625 C 4.191406 -18.695312 5.378906 -19.09375 6.796875 -19.09375 Z M 6.796875 -19.09375 "/></g></g></g><g fill="#355e3b" fill-opacity="1"><g transform="translate(151.553858, 299.451249)"><g><path d="M 5.734375 -7.59375 L 5.734375 -2.8125 C 5.734375 -2.144531 5.800781 -1.660156 5.9375 -1.359375 C 6.082031 -1.054688 6.332031 -0.847656 6.6875 -0.734375 C 7.039062 -0.628906 7.617188 -0.5625 8.421875 -0.53125 L 8.421875 0 C 7.492188 -0.0507812 6.191406 -0.078125 4.515625 -0.078125 C 2.992188 -0.078125 1.859375 -0.0507812 1.109375 0 L 1.109375 -0.53125 C 1.753906 -0.5625 2.222656 -0.628906 2.515625 -0.734375 C 2.804688 -0.847656 3.003906 -1.054688 3.109375 -1.359375 C 3.210938 -1.660156 3.265625 -2.144531 3.265625 -2.8125 L 3.265625 -15.984375 C 3.265625 -16.648438 3.210938 -17.132812 3.109375 -17.4375 C 3.003906 -17.738281 2.804688 -17.941406 2.515625 -18.046875 C 2.222656 -18.160156 1.753906 -18.234375 1.109375 -18.265625 L 1.109375 -18.796875 C 1.859375 -18.742188 2.941406 -18.71875 4.359375 -18.71875 L 7.21875 -18.734375 C 7.550781 -18.753906 7.929688 -18.765625 8.359375 -18.765625 C 10.429688 -18.765625 12.015625 -18.289062 13.109375 -17.34375 C 14.210938 -16.394531 14.765625 -15.125 14.765625 -13.53125 C 14.765625 -12.5625 14.546875 -11.628906 14.109375 -10.734375 C 13.671875 -9.835938 12.9375 -9.085938 11.90625 -8.484375 C 10.875 -7.890625 9.5 -7.59375 7.78125 -7.59375 Z M 7.703125 -18.265625 C 7.148438 -18.265625 6.734375 -18.203125 6.453125 -18.078125 C 6.179688 -17.953125 5.992188 -17.726562 5.890625 -17.40625 C 5.785156 -17.09375 5.734375 -16.617188 5.734375 -15.984375 L 5.734375 -8.125 L 7.515625 -8.125 C 9.242188 -8.125 10.441406 -8.585938 11.109375 -9.515625 C 11.773438 -10.441406 12.109375 -11.6875 12.109375 -13.25 C 12.109375 -14.96875 11.765625 -16.234375 11.078125 -17.046875 C 10.398438 -17.859375 9.273438 -18.265625 7.703125 -18.265625 Z M 7.703125 -18.265625 "/></g></g></g><g fill="#355e3b" fill-opacity="1"><g transform="translate(167.081487, 299.451249)"><g><path d="M 14.703125 -3.390625 C 14.703125 -2.390625 14.765625 -1.257812 14.890625 0 C 13.691406 -0.0507812 11.664062 -0.078125 8.8125 -0.078125 C 5.414062 -0.078125 2.847656 -0.0507812 1.109375 0 L 1.109375 -0.53125 C 1.753906 -0.5625 2.222656 -0.628906 2.515625 -0.734375 C 2.804688 -0.847656 3.003906 -1.054688 3.109375 -1.359375 C 3.210938 -1.660156 3.265625 -2.144531 3.265625 -2.8125 L 3.265625 -15.984375 C 3.265625 -16.648438 3.210938 -17.132812 3.109375 -17.4375 C 3.003906 -17.738281 2.804688 -17.941406 2.515625 -18.046875 C 2.222656 -18.160156 1.753906 -18.234375 1.109375 -18.265625 L 1.109375 -18.796875 C 2.847656 -18.742188 5.414062 -18.71875 8.8125 -18.71875 C 11.414062 -18.71875 13.265625 -18.742188 14.359375 -18.796875 C 14.234375 -17.628906 14.171875 -16.582031 14.171875 -15.65625 C 14.171875 -14.96875 14.195312 -14.421875 14.25 -14.015625 L 13.640625 -14.015625 C 13.515625 -15.171875 13.351562 -16.023438 13.15625 -16.578125 C 12.96875 -17.140625 12.644531 -17.546875 12.1875 -17.796875 C 11.726562 -18.054688 11.03125 -18.1875 10.09375 -18.1875 L 7.890625 -18.1875 C 7.242188 -18.1875 6.773438 -18.132812 6.484375 -18.03125 C 6.191406 -17.9375 5.992188 -17.738281 5.890625 -17.4375 C 5.785156 -17.132812 5.734375 -16.648438 5.734375 -15.984375 L 5.734375 -9.71875 L 7.484375 -9.71875 C 8.109375 -9.71875 8.585938 -9.863281 8.921875 -10.15625 C 9.253906 -10.445312 9.476562 -10.789062 9.59375 -11.1875 C 9.707031 -11.582031 9.800781 -12.082031 9.875 -12.6875 L 9.953125 -13.21875 L 10.5625 -13.21875 C 10.507812 -12.476562 10.484375 -11.644531 10.484375 -10.71875 L 10.484375 -9.453125 C 10.484375 -8.546875 10.535156 -7.289062 10.640625 -5.6875 L 10.03125 -5.6875 C 10.019531 -5.800781 9.96875 -6.222656 9.875 -6.953125 C 9.789062 -7.691406 9.546875 -8.25 9.140625 -8.625 C 8.742188 -9 8.191406 -9.1875 7.484375 -9.1875 L 5.734375 -9.1875 L 5.734375 -2.8125 C 5.734375 -2.144531 5.785156 -1.660156 5.890625 -1.359375 C 5.992188 -1.054688 6.191406 -0.851562 6.484375 -0.75 C 6.773438 -0.65625 7.242188 -0.609375 7.890625 -0.609375 L 9.828125 -0.609375 C 10.921875 -0.609375 11.753906 -0.753906 12.328125 -1.046875 C 12.898438 -1.335938 13.316406 -1.804688 13.578125 -2.453125 C 13.847656 -3.097656 14.046875 -4.050781 14.171875 -5.3125 L 14.78125 -5.3125 C 14.726562 -4.832031 14.703125 -4.191406 14.703125 -3.390625 Z M 14.703125 -3.390625 "/></g></g></g><g fill="#355e3b" fill-opacity="1"><g transform="translate(183.246151, 299.451249)"><g><path d="M 14.703125 -3.390625 C 14.703125 -2.390625 14.765625 -1.257812 14.890625 0 C 13.691406 -0.0507812 11.664062 -0.078125 8.8125 -0.078125 C 5.414062 -0.078125 2.847656 -0.0507812 1.109375 0 L 1.109375 -0.53125 C 1.753906 -0.5625 2.222656 -0.628906 2.515625 -0.734375 C 2.804688 -0.847656 3.003906 -1.054688 3.109375 -1.359375 C 3.210938 -1.660156 3.265625 -2.144531 3.265625 -2.8125 L 3.265625 -15.984375 C 3.265625 -16.648438 3.210938 -17.132812 3.109375 -17.4375 C 3.003906 -17.738281 2.804688 -17.941406 2.515625 -18.046875 C 2.222656 -18.160156 1.753906 -18.234375 1.109375 -18.265625 L 1.109375 -18.796875 C 2.847656 -18.742188 5.414062 -18.71875 8.8125 -18.71875 C 11.414062 -18.71875 13.265625 -18.742188 14.359375 -18.796875 C 14.234375 -17.628906 14.171875 -16.582031 14.171875 -15.65625 C 14.171875 -14.96875 14.195312 -14.421875 14.25 -14.015625 L 13.640625 -14.015625 C 13.515625 -15.171875 13.351562 -16.023438 13.15625 -16.578125 C 12.96875 -17.140625 12.644531 -17.546875 12.1875 -17.796875 C 11.726562 -18.054688 11.03125 -18.1875 10.09375 -18.1875 L 7.890625 -18.1875 C 7.242188 -18.1875 6.773438 -18.132812 6.484375 -18.03125 C 6.191406 -17.9375 5.992188 -17.738281 5.890625 -17.4375 C 5.785156 -17.132812 5.734375 -16.648438 5.734375 -15.984375 L 5.734375 -9.71875 L 7.484375 -9.71875 C 8.109375 -9.71875 8.585938 -9.863281 8.921875 -10.15625 C 9.253906 -10.445312 9.476562 -10.789062 9.59375 -11.1875 C 9.707031 -11.582031 9.800781 -12.082031 9.875 -12.6875 L 9.953125 -13.21875 L 10.5625 -13.21875 C 10.507812 -12.476562 10.484375 -11.644531 10.484375 -10.71875 L 10.484375 -9.453125 C 10.484375 -8.546875 10.535156 -7.289062 10.640625 -5.6875 L 10.03125 -5.6875 C 10.019531 -5.800781 9.96875 -6.222656 9.875 -6.953125 C 9.789062 -7.691406 9.546875 -8.25 9.140625 -8.625 C 8.742188 -9 8.191406 -9.1875 7.484375 -9.1875 L 5.734375 -9.1875 L 5.734375 -2.8125 C 5.734375 -2.144531 5.785156 -1.660156 5.890625 -1.359375 C 5.992188 -1.054688 6.191406 -0.851562 6.484375 -0.75 C 6.773438 -0.65625 7.242188 -0.609375 7.890625 -0.609375 L 9.828125 -0.609375 C 10.921875 -0.609375 11.753906 -0.753906 12.328125 -1.046875 C 12.898438 -1.335938 13.316406 -1.804688 13.578125 -2.453125 C 13.847656 -3.097656 14.046875 -4.050781 14.171875 -5.3125 L 14.78125 -5.3125 C 14.726562 -4.832031 14.703125 -4.191406 14.703125 -3.390625 Z M 14.703125 -3.390625 "/></g></g></g><g fill="#355e3b" fill-opacity="1"><g transform="translate(199.410815, 299.451249)"><g><path d="M 9.84375 -19.171875 C 10.90625 -19.171875 11.804688 -19.019531 12.546875 -18.71875 C 13.296875 -18.414062 14.023438 -17.988281 14.734375 -17.4375 C 14.929688 -17.28125 15.097656 -17.203125 15.234375 -17.203125 C 15.585938 -17.203125 15.816406 -17.734375 15.921875 -18.796875 L 16.53125 -18.796875 C 16.46875 -17.640625 16.4375 -15.601562 16.4375 -12.6875 L 15.828125 -12.6875 C 15.628906 -13.84375 15.445312 -14.671875 15.28125 -15.171875 C 15.125 -15.671875 14.863281 -16.15625 14.5 -16.625 C 13.96875 -17.3125 13.289062 -17.828125 12.46875 -18.171875 C 11.644531 -18.515625 10.753906 -18.6875 9.796875 -18.6875 C 8.640625 -18.6875 7.632812 -18.304688 6.78125 -17.546875 C 5.925781 -16.785156 5.257812 -15.703125 4.78125 -14.296875 C 4.300781 -12.890625 4.0625 -11.238281 4.0625 -9.34375 C 4.0625 -7.414062 4.316406 -5.757812 4.828125 -4.375 C 5.335938 -3 6.046875 -1.953125 6.953125 -1.234375 C 7.867188 -0.515625 8.90625 -0.15625 10.0625 -0.15625 C 10.945312 -0.15625 11.804688 -0.320312 12.640625 -0.65625 C 13.472656 -1 14.125 -1.503906 14.59375 -2.171875 C 14.945312 -2.671875 15.203125 -3.203125 15.359375 -3.765625 C 15.523438 -4.335938 15.679688 -5.207031 15.828125 -6.375 L 16.4375 -6.375 C 16.4375 -3.332031 16.46875 -1.207031 16.53125 0 L 15.921875 0 C 15.867188 -0.5625 15.796875 -0.960938 15.703125 -1.203125 C 15.609375 -1.441406 15.472656 -1.5625 15.296875 -1.5625 C 15.148438 -1.5625 14.960938 -1.492188 14.734375 -1.359375 C 13.929688 -0.785156 13.164062 -0.351562 12.4375 -0.0625 C 11.71875 0.226562 10.847656 0.375 9.828125 0.375 C 8.140625 0.375 6.660156 -0.00390625 5.390625 -0.765625 C 4.128906 -1.523438 3.148438 -2.625 2.453125 -4.0625 C 1.753906 -5.507812 1.40625 -7.234375 1.40625 -9.234375 C 1.40625 -11.179688 1.765625 -12.90625 2.484375 -14.40625 C 3.203125 -15.914062 4.203125 -17.085938 5.484375 -17.921875 C 6.765625 -18.753906 8.21875 -19.171875 9.84375 -19.171875 Z M 9.84375 -19.171875 "/></g></g></g><g fill="#355e3b" fill-opacity="1"><g transform="translate(217.672369, 299.451249)"><g><path d="M 18.984375 -18.265625 C 18.347656 -18.234375 17.882812 -18.160156 17.59375 -18.046875 C 17.300781 -17.941406 17.097656 -17.738281 16.984375 -17.4375 C 16.878906 -17.132812 16.828125 -16.648438 16.828125 -15.984375 L 16.828125 -2.8125 C 16.828125 -2.144531 16.878906 -1.660156 16.984375 -1.359375 C 17.097656 -1.054688 17.300781 -0.847656 17.59375 -0.734375 C 17.882812 -0.628906 18.347656 -0.5625 18.984375 -0.53125 L 18.984375 0 C 18.234375 -0.0507812 17.097656 -0.078125 15.578125 -0.078125 C 14.148438 -0.078125 13.03125 -0.0507812 12.21875 0 L 12.21875 -0.53125 C 12.851562 -0.5625 13.316406 -0.628906 13.609375 -0.734375 C 13.898438 -0.847656 14.097656 -1.054688 14.203125 -1.359375 C 14.304688 -1.660156 14.359375 -2.144531 14.359375 -2.8125 L 14.359375 -9.1875 L 5.734375 -9.1875 L 5.734375 -2.8125 C 5.734375 -2.144531 5.785156 -1.660156 5.890625 -1.359375 C 5.992188 -1.054688 6.191406 -0.847656 6.484375 -0.734375 C 6.773438 -0.628906 7.242188 -0.5625 7.890625 -0.53125 L 7.890625 0 C 7.066406 -0.0507812 5.941406 -0.078125 4.515625 -0.078125 C 2.992188 -0.078125 1.859375 -0.0507812 1.109375 0 L 1.109375 -0.53125 C 1.753906 -0.5625 2.222656 -0.628906 2.515625 -0.734375 C 2.804688 -0.847656 3.003906 -1.054688 3.109375 -1.359375 C 3.210938 -1.660156 3.265625 -2.144531 3.265625 -2.8125 L 3.265625 -15.984375 C 3.265625 -16.648438 3.210938 -17.132812 3.109375 -17.4375 C 3.003906 -17.738281 2.804688 -17.941406 2.515625 -18.046875 C 2.222656 -18.160156 1.753906 -18.234375 1.109375 -18.265625 L 1.109375 -18.796875 C 1.859375 -18.742188 2.992188 -18.71875 4.515625 -18.71875 C 5.929688 -18.71875 7.054688 -18.742188 7.890625 -18.796875 L 7.890625 -18.265625 C 7.242188 -18.234375 6.773438 -18.160156 6.484375 -18.046875 C 6.191406 -17.941406 5.992188 -17.738281 5.890625 -17.4375 C 5.785156 -17.132812 5.734375 -16.648438 5.734375 -15.984375 L 5.734375 -9.71875 L 14.359375 -9.71875 L 14.359375 -15.984375 C 14.359375 -16.648438 14.304688 -17.132812 14.203125 -17.4375 C 14.097656 -17.738281 13.898438 -17.941406 13.609375 -18.046875 C 13.316406 -18.160156 12.851562 -18.234375 12.21875 -18.265625 L 12.21875 -18.796875 C 13.03125 -18.742188 14.148438 -18.71875 15.578125 -18.71875 C 17.097656 -18.71875 18.234375 -18.742188 18.984375 -18.796875 Z M 18.984375 -18.265625 "/></g></g></g></svg>